<?xml version="1.0" ?><svg contentScriptType="text/ecmascript" contentStyleType="text/css" enable-background="new 0 0 2048 2048" height="2048px" id="Layer_1" preserveAspectRatio="xMidYMid meet" version="1.1" viewBox="0.0 0 1663.0 2048" width="1663.0px" xml:space="preserve" xmlns="http://www.w3.org/2000/svg" xmlns:xlink="http://www.w3.org/1999/xlink" zoomAndPan="magnify"><path d="M1408,1058v318c0,79.333-28.167,147.167-84.5,203.5S1199.333,1664,1120,1664H288c-79.333,0-147.167-28.167-203.5-84.5  S0,1455.333,0,1376V544c0-79.333,28.167-147.167,84.5-203.5S208.667,256,288,256h832c42,0,81,8.333,117,25c10,4.667,16,12.333,18,23  c2,11.333-1,21-9,29l-49,49c-6.667,6.667-14.333,10-23,10c-2,0-5-0.667-9-2c-15.333-4-30.333-6-45-6H288c-44,0-81.667,15.667-113,47  s-47,69-47,113v832c0,44,15.667,81.667,47,113s69,47,113,47h832c44,0,81.667-15.667,113-47s47-69,47-113v-254c0-8.667,3-16,9-22  l64-64c6.667-6.667,14.333-10,23-10c4,0,8,1,12,3C1401.333,1034.333,1408,1044,1408,1058z M1639,569l-814,814c-16,16-35,24-57,24  s-41-8-57-24L281,953c-16-16-24-35-24-57s8-41,24-57l110-110c16-16,35-24,57-24s41,8,57,24l263,263l647-647c16-16,35-24,57-24  s41,8,57,24l110,110c16,16,24,35,24,57S1655,553,1639,569z"/></svg>